<svg width="40" height="38" xmlns="http://www.w3.org/2000/svg" xmlns:xlink="http://www.w3.org/1999/xlink" xml:space="preserve" overflow="hidden"><g transform="translate(-528 -24)"><g><g><g><g><path d="M554.729 42.2083 548.396 42.2083 548.396 31.5208 541.271 31.5208 541.271 32.3125 547.604 32.3125 547.604 42.2083 541.271 42.2083 541.271 43 547.604 43 547.604 52.8958 541.271 52.8958 541.271 53.6875 548.396 53.6875 548.396 43 554.729 43 554.729 42.2083Z" stroke="#000000" stroke-width="0.395823" stroke-linecap="butt" stroke-linejoin="miter" stroke-miterlimit="4" stroke-opacity="1" fill="#000000" fill-rule="nonzero" fill-opacity="1"/><path d="M539.292 33.8958 535.333 33.8958 535.333 29.9375 539.292 29.9375ZM534.542 29.1458 534.542 34.6875 540.083 34.6875 540.083 29.1458Z" stroke="#000000" stroke-width="0.395823" stroke-linecap="butt" stroke-linejoin="miter" stroke-miterlimit="4" stroke-opacity="1" fill="#000000" fill-rule="nonzero" fill-opacity="1"/><path d="M539.292 44.5833 535.333 44.5833 535.333 40.625 539.292 40.625ZM534.542 39.8333 534.542 45.375 540.083 45.375 540.083 39.8333Z" stroke="#000000" stroke-width="0.395823" stroke-linecap="butt" stroke-linejoin="miter" stroke-miterlimit="4" stroke-opacity="1" fill="#000000" fill-rule="nonzero" fill-opacity="1"/><path d="M539.292 55.2708 535.333 55.2708 535.333 51.3125 539.292 51.3125ZM534.542 50.5208 534.542 56.0625 540.083 56.0625 540.083 50.5208Z" stroke="#000000" stroke-width="0.395823" stroke-linecap="butt" stroke-linejoin="miter" stroke-miterlimit="4" stroke-opacity="1" fill="#000000" fill-rule="nonzero" fill-opacity="1"/><path d="M560.667 44.5833 556.708 44.5833 556.708 40.625 560.667 40.625ZM555.917 39.8333 555.917 45.375 561.458 45.375 561.458 39.8333Z" stroke="#000000" stroke-width="0.395823" stroke-linecap="butt" stroke-linejoin="miter" stroke-miterlimit="4" stroke-opacity="1" fill="#000000" fill-rule="nonzero" fill-opacity="1"/></g></g></g></g></g></svg>