<?xml version="1.0" encoding="UTF-8" standalone="no"?>
<svg
   viewBox="0 0 616 616"
   height="616"
   width="616"
   xml:space="preserve"
   id="svg2"
   version="1.1"
   sodipodi:docname="logo_alt.svg"
   inkscape:version="1.3.2 (091e20e, 2023-11-25)"
   xmlns:inkscape="http://www.inkscape.org/namespaces/inkscape"
   xmlns:sodipodi="http://sodipodi.sourceforge.net/DTD/sodipodi-0.dtd"
   xmlns="http://www.w3.org/2000/svg"
   xmlns:svg="http://www.w3.org/2000/svg"
   xmlns:rdf="http://www.w3.org/1999/02/22-rdf-syntax-ns#"
   xmlns:cc="http://creativecommons.org/ns#"
   xmlns:dc="http://purl.org/dc/elements/1.1/"><sodipodi:namedview
     id="namedview1"
     pagecolor="#ffffff"
     bordercolor="#000000"
     borderopacity="0.25"
     inkscape:showpageshadow="2"
     inkscape:pageopacity="0.0"
     inkscape:pagecheckerboard="0"
     inkscape:deskcolor="#d1d1d1"
     inkscape:zoom="1.0074671"
     inkscape:cx="307.70237"
     inkscape:cy="308.19866"
     inkscape:window-width="1664"
     inkscape:window-height="958"
     inkscape:window-x="2019"
     inkscape:window-y="227"
     inkscape:window-maximized="0"
     inkscape:current-layer="svg2" /><metadata
     id="metadata8"><rdf:RDF><cc:Work
         rdf:about=""><dc:format>image/svg+xml</dc:format><dc:type
           rdf:resource="http://purl.org/dc/dcmitype/StillImage" /></cc:Work></rdf:RDF></metadata><defs
     id="defs6" /><g
     transform="matrix(2.6666666,0,0,-2.6666666,-311.10065,933.72631)"
     id="g10"><g
       transform="rotate(-49.999967,258.21389,-93.367615)"
       id="g12"><path
         id="path14"
         style="fill:#7876ff;fill-opacity:1;fill-rule:nonzero;stroke:none"
         d="m 1.414214,40.399609 c -0.781049,0.781051 -2.047379,0.781051 -2.828428,0 -0.781048,-0.781048 -0.781048,-2.047379 0,-2.828427 z m 1.628374,-1.953255 -0.045442,1.999485 v 0 z m 2.970717,0.694763 0.757266,-1.851097 z m 2.072315,1.377552 1.644384,-1.13842 v 0 z m -0.053906,5.360466 0.433862,1.952374 z M 7.648397,45.28619 9.571445,45.835632 Z M 8.415033,44.54351 7.407291,42.815952 v 0 z m 4.474043,-1.251777 -0.15949,-1.99363 z m 4.408159,1.892639 1.266476,-1.547913 v 0 z m 0.08385,10.726921 -1.907164,-0.602264 v 0 z m -0.99423,1.832741 -1.373248,-1.454025 v 0 z m -1.185891,0.191658 0.894427,-1.788853 z m -0.431234,-1.461399 -1.998725,-0.07139 v 0 z m 0.539042,-1.090061 1.687323,1.073749 v 0 z m 0.754656,-1.413487 1.779135,0.913609 z m 2.048359,-2.539486 1.623068,1.16861 z m 6.306782,-4.731582 0.668819,1.884853 z m 8.139524,-0.173691 -1.176344,1.61747 v 0 z m 2.479591,15.099144 -1.932018,-0.517018 z m -3.749334,6.791923 1.6,1.199997 z m -4.036821,2.455628 -0.549443,-1.923043 z m -2.803013,-1.030167 -1.897366,0.632462 v 0 z m 1.431454,-4.875328 1.617473,1.176346 v 0 z m 3.234249,-3.617565 1.390043,1.437977 z m 1.958515,-2.048359 -1.275627,-1.540379 z m 2.407718,-1.449421 0.910954,1.780495 z m 12.122441,-2.749111 -0.485069,1.940285 z m 2.34782,0.808563 1.200001,-1.600002 v 0 z m 1.581192,1.946537 -1.670833,1.099236 z m 0.694759,5.222714 1.987069,0.227092 z m -1.551239,5.288597 1.914425,0.578773 z m -2.6413,6.600257 -1.7551,-0.958976 z M 42.584262,80.791046 41.045882,79.513 Z m -3.366017,3.49778 -1.398235,-1.430016 z m -5.366455,2.671249 -0.09988,1.997506 z m -1.80878,-0.946319 1.875496,-0.694626 z m 1.102035,-2.934784 -1.649862,-1.130463 z m 1.790817,-1.778832 1.243767,1.566224 z m 2.629323,-1.886642 -0.941174,-1.76471 v 0 z m 7.121337,-4.15062 -0.849815,-1.810478 z m 3.58762,-1.455413 0.837116,1.816383 z m 3.5397,-1.503327 0.642082,1.894135 z m 3.779281,-1.060119 -0.578483,-1.914505 z m 3.539704,-0.778611 0.162723,1.99337 z m 5.713836,0.700753 0.82222,-1.823174 z m 2.85093,4.150619 -1.972786,0.328796 z m -3.342057,10.882645 1.696,1.059997 v 0 z m -4.192543,5.066986 1.24939,1.561737 v 0 z m -1.730922,1.467392 1.123768,1.654434 v 0 z m -0.0937,2.402572 c -0.883655,0.662743 -2.137257,0.483658 -2.799999,-0.400001 -0.662743,-0.883652 -0.483658,-2.137253 0.400001,-2.799996 z M -1.414214,37.571182 c 0.86625,-0.866249 2.001673,-1.059948 2.689037,-1.120136 0.706338,-0.06185 1.499403,-0.01131 1.813208,-0.0042 l -0.090885,3.998966 c -0.128972,-0.0029 -0.26573,-0.0081 -0.386548,-0.01246 -0.126532,-0.0046 -0.245219,-0.0087 -0.364074,-0.01113 -0.240259,-0.0049 -0.445468,-0.002 -0.622777,0.01355 -0.181006,0.01585 -0.282651,0.04089 -0.327136,0.05617 -0.040223,0.01381 0.026222,-9.76e-4 0.117603,-0.09236 l -2.828428,-2.828427 z m 4.502245,-1.124309 c 1.288028,0.02927 2.670779,0.429245 3.68254,0.843147 L 5.256039,40.99221 C 4.503317,40.684277 3.623892,40.460083 2.997146,40.445839 Z m 3.68254,0.843147 c 0.390604,0.159794 0.907345,0.389347 1.41257,0.696693 0.485034,0.29506 1.096312,0.742737 1.546863,1.393536 l -3.288769,2.276836 c 0.00482,0.007 -0.071537,-0.09155 -0.336969,-0.253025 C 5.859025,41.254875 5.562472,41.117569 5.256039,40.99221 Z m 2.959433,2.090229 c 0.575328,0.831028 1.241883,2.336468 1.451895,3.789257 0.104897,0.725639 0.132023,1.67247 -0.228172,2.572147 -0.411891,1.028805 -1.266438,1.818364 -2.488151,2.089856 L 7.597854,43.926758 c 6.25e-4,-1.38e-4 -0.0225,0.005 -0.061016,0.02369 -0.039359,0.01908 -0.085915,0.04801 -0.133011,0.08855 -0.100364,0.08639 -0.147701,0.176369 -0.163547,0.21595 -0.013043,0.03257 0.041295,-0.1083 -0.017231,-0.513157 C 7.169566,43.371807 7.04463,42.941177 6.879138,42.527527 6.710659,42.106411 6.538041,41.796917 6.441235,41.657085 Z m -1.264428,8.45126 C 8.158902,47.899658 7.622874,47.97279 7.038952,47.75613 6.335069,47.494961 5.895164,46.941895 5.707406,46.37323 5.552382,45.903709 5.58519,45.486977 5.610343,45.283813 5.638894,45.053211 5.691732,44.854404 5.725349,44.736748 l 3.846096,1.098884 c -0.011792,0.04127 -2.21e-4,0.01082 0.00859,-0.06034 0.00541,-0.04372 0.040009,-0.309925 -0.074312,-0.656169 -0.147056,-0.445385 -0.507341,-0.902428 -1.075305,-1.113167 -0.448,-0.166226 -0.791805,-0.08825 -0.832564,-0.0792 l 0.867722,3.904751 z M 5.725349,44.736748 c 0.204483,-0.715691 0.672908,-1.174473 0.929378,-1.395569 0.287285,-0.247662 0.58399,-0.426895 0.752564,-0.525227 l 2.015484,3.455113 c -0.050396,0.0294 -0.088849,0.05316 -0.119386,0.07364 -0.031556,0.02116 -0.041586,0.03015 -0.036889,0.0261 0.00254,-0.0022 0.043579,-0.03712 0.097599,-0.10875 0.053774,-0.0713 0.146547,-0.21363 0.207346,-0.426426 z m 1.681942,-1.920796 c 1.707364,-0.995964 3.616711,-1.381401 5.322295,-1.517849 l 0.318981,3.987259 c -1.387449,0.110996 -2.634537,0.407471 -3.625792,0.985703 z m 5.322295,-1.517849 c 2.685093,-0.214809 4.482635,1.23259 5.834125,2.338356 l -2.532951,3.095829 c -1.395338,-1.141643 -2.054909,-1.521106 -2.982193,-1.446926 z m 5.834125,2.338356 c 0.695654,0.569168 1.226189,1.332531 1.582777,2.083416 0.356249,0.750164 0.612148,1.642212 0.612148,2.537033 h -4 c 0,-0.166568 -0.0589,-0.470512 -0.225408,-0.821125 -0.166164,-0.349899 -0.366329,-0.592109 -0.502468,-0.703495 z m 2.194925,4.620449 c 0,1.610356 0.09526,3.542622 -0.407096,5.55206 l -3.88057,-0.970143 c 0.351668,-1.406673 0.287666,-2.707771 0.287666,-4.581917 z m -0.407096,5.55206 c -0.163546,0.654182 -0.424906,1.232074 -0.619084,1.654823 -0.217296,0.473083 -0.352102,0.75811 -0.444204,1.049763 l -3.81433,-1.204525 c 0.185498,-0.58741 0.452089,-1.141343 0.623633,-1.514817 0.194664,-0.423813 0.30959,-0.700084 0.373415,-0.955387 z m -1.063288,2.704586 c -0.220793,0.69918 -0.618242,1.825149 -1.528149,2.684505 l -2.746495,-2.90805 c 0.108463,-0.10244 0.262108,-0.353329 0.460314,-0.98098 z m -1.528149,2.684505 c -0.321672,0.303803 -0.675049,0.464256 -0.883924,0.54562 -0.241036,0.09389 -0.48807,0.157597 -0.718966,0.197186 -0.229962,0.03943 -0.493253,0.06341 -0.767752,0.05159 -0.242721,-0.01046 -0.656063,-0.05447 -1.082923,-0.267903 l 1.788854,-3.577709 c -0.156393,-0.0782 -0.287503,-0.112533 -0.363435,-0.128334 -0.07969,-0.01659 -0.13883,-0.02099 -0.17034,-0.02235 -0.03328,-0.0014 -0.05479,-2.52e-4 -0.06396,4.19e-4 -0.0098,7.21e-4 -0.01485,0.0015 -0.01644,0.0018 -0.0016,2.82e-4 -0.005,8.88e-4 -0.01127,0.0026 -0.0058,0.0016 -0.02121,0.006 -0.04564,0.01548 -0.02275,0.0089 -0.0684,0.02801 -0.129225,0.06268 -0.05627,0.03207 -0.161966,0.098 -0.281465,0.210858 l 2.746495,2.90805 z m -3.453565,0.526489 c -1.041161,-0.52058 -1.413355,-1.449081 -1.516231,-2.131294 -0.0769,-0.509933 -0.02069,-1.151375 -0.0193,-1.190346 l 3.997451,0.142765 c -0.0031,0.08805 -0.0082,0.176785 -0.01151,0.238171 -0.0038,0.0692 -0.0062,0.117123 -0.0075,0.160366 -0.0028,0.09283 0.0025,0.09457 -0.0038,0.0526 -0.0071,-0.04709 -0.03651,-0.203785 -0.153675,-0.391914 -0.129846,-0.208489 -0.311647,-0.365616 -0.496521,-0.458054 l -1.788854,3.577709 z m -1.535532,-3.32164 c 0.01468,-0.410953 0.133713,-0.749275 0.206755,-0.932968 0.08322,-0.209293 0.180796,-0.396732 0.260909,-0.539802 0.150158,-0.268158 0.343197,-0.557457 0.382779,-0.61966 l 3.374647,2.147503 c -0.02574,0.04046 -0.05482,0.08518 -0.07778,0.120571 -0.0251,0.0387 -0.04846,0.07479 -0.07192,0.11166 -0.04766,0.07492 -0.08683,0.139195 -0.117651,0.194237 -0.01494,0.02668 -0.02524,0.04645 -0.03179,0.05973 -0.0068,0.01388 -0.0066,0.01464 -0.0023,0.0037 0.0038,-0.0095 0.01738,-0.04456 0.03187,-0.100921 0.01366,-0.05314 0.03679,-0.15836 0.04189,-0.301316 l -3.997451,-0.142765 z m 0.850443,-2.09243 c 0.215743,-0.339023 0.368612,-0.680359 0.662846,-1.253345 l 3.558269,1.827221 c -0.188105,0.366306 -0.498501,1.026825 -0.846468,1.573627 z m 0.662846,-1.253345 c 0.385686,-0.751072 0.894749,-1.328621 1.284137,-1.751015 0.43889,-0.476089 0.69272,-0.727402 0.920286,-1.043465 l 3.246138,2.337216 c -0.412682,0.573173 -0.927817,1.0946 -1.225436,1.417446 -0.34712,0.376541 -0.542112,0.624115 -0.666856,0.867039 z m 2.204423,-2.79448 c 1.821064,-2.529258 4.306278,-4.399372 7.261032,-5.447834 l 1.337639,3.769711 c -2.186781,0.775955 -4.006525,2.145885 -5.352533,4.015339 z m 7.261032,-5.447834 c 1.291792,-0.458378 2.921169,-1.05719 4.57431,-1.242855 1.739424,-0.195358 3.635733,0.0459 5.410376,1.336548 l -2.352686,3.234944 c -0.769628,-0.559731 -1.592344,-0.710919 -2.611246,-0.596486 -1.105185,0.124127 -2.27343,0.53735 -3.683115,1.03756 z m 9.984686,0.09369 c 2.028835,1.475517 4.057903,4.064331 4.057903,7.181576 h -4 c 0,-1.372582 -0.972351,-2.900639 -2.410589,-3.946632 z m 4.057903,7.181576 c 0,0.720272 0.04858,1.449348 0.103257,2.258163 0.05316,0.786496 0.112361,1.651974 0.112361,2.533314 h -4 c 0,-0.724007 -0.04861,-1.455173 -0.103252,-2.263538 -0.05314,-0.786038 -0.112366,-1.650028 -0.112366,-2.527939 z m 0.215618,4.791477 c 0,2.047939 -0.669529,3.88271 -1.038253,5.260586 l -3.864037,-1.034039 c 0.492626,-1.840866 0.90229,-2.870178 0.90229,-4.226547 z m -1.038253,5.260586 c -0.790081,2.9524 -2.528584,5.404541 -4.081353,7.474899 l -3.2,-2.399994 c 1.552646,-2.070198 2.846878,-3.977302 3.417316,-6.108944 z m -4.081353,7.474899 c -1.39072,1.854294 -3.401966,2.697136 -5.087379,3.178681 l -1.098885,-3.846093 c 1.379124,-0.394035 2.375542,-0.918289 2.986264,-1.732582 z m -5.087379,3.178681 c -0.865391,0.247253 -1.874884,0.235389 -2.770414,-0.03837 -0.883789,-0.270164 -2.028328,-0.929153 -2.479407,-2.282386 l 3.794733,-1.264916 c -0.05027,-0.150825 -0.137474,-0.245262 -0.185825,-0.284782 -0.03831,-0.03131 -0.03544,-0.01619 0.03985,0.0068 0.07216,0.02206 0.171,0.03873 0.280104,0.04017 0.111019,0.0015 0.189484,-0.01333 0.222074,-0.02264 l 1.098885,3.846093 z m -5.249821,-2.320755 c -0.466757,-1.400269 -0.208288,-2.793198 0.176483,-3.864655 0.392359,-1.092575 0.996169,-2.078766 1.534865,-2.819477 l 3.234945,2.352688 c -0.402614,0.553596 -0.782945,1.199821 -1.005194,1.81871 -0.229835,0.640007 -0.216438,1.037598 -0.146366,1.247818 z m 1.711348,-6.684132 c 1.063837,-1.46278 2.242313,-2.700481 3.461675,-3.8792 l 2.780089,2.875954 c -1.143663,1.105541 -2.137407,2.160492 -3.006819,3.355934 z m 3.461675,-3.8792 c 0.267884,-0.258953 0.500073,-0.533119 0.848542,-0.927635 0.32065,-0.363022 0.726221,-0.810581 1.224392,-1.223126 l 2.551254,3.080761 c -0.242069,0.200463 -0.474669,0.447369 -0.777674,0.790413 -0.275186,0.311554 -0.652136,0.755058 -1.066425,1.155541 z m 2.072934,-2.150761 c 0.891876,-0.738586 2.025522,-1.307418 2.772396,-1.689537 l 1.821903,3.56099 c -0.845455,0.43256 -1.554523,0.804752 -2.043045,1.209308 z m 2.772396,-1.689537 c 1.812847,-0.927505 3.964813,-1.943153 6.234524,-2.585037 2.269241,-0.641754 4.78638,-0.948254 7.283939,-0.323864 l -0.970142,3.88057 c -1.582818,-0.395703 -3.344555,-0.239544 -5.22527,0.292331 -1.880245,0.531746 -3.749309,1.4007 -5.501148,2.29699 z m 13.518463,-2.908901 c 0.224956,0.05624 0.841995,0.188858 1.291454,0.319309 0.490082,0.142243 1.170639,0.379048 1.771294,0.829537 l -2.400002,3.200001 c 0.0028,0.0021 -0.02938,-0.02186 -0.120144,-0.06127 -0.08949,-0.03885 -0.208828,-0.08115 -0.366092,-0.126797 -0.157116,-0.04561 -0.328636,-0.08795 -0.525501,-0.133968 -0.177342,-0.04146 -0.41729,-0.09528 -0.621151,-0.146244 l 0.970142,-3.88057 z m 3.062748,1.148846 c 1.014881,0.761162 1.683353,1.886924 2.052025,2.447307 l -3.341667,2.198468 c -0.535088,-0.813336 -0.787007,-1.203259 -1.11036,-1.445774 z m 2.052025,2.447307 c 1.458748,2.217297 1.204796,4.853249 1.010994,6.549038 l -3.974133,-0.454189 c 0.20689,-1.810291 0.189354,-3.033199 -0.378528,-3.896381 z m 1.010994,6.549038 c -0.125649,1.099423 -0.43956,2.15662 -0.749951,3.080914 -0.340843,1.014976 -0.623577,1.731277 -0.873932,2.559364 l -3.828846,-1.157555 c 0.263596,-0.871887 0.65522,-1.913871 0.910878,-2.675186 0.286113,-0.852005 0.490848,-1.589107 0.567718,-2.261726 z m -1.623883,5.640278 c -0.701103,2.319039 -1.573654,4.734871 -2.800624,6.980454 l -3.510201,-1.917946 c 1.03989,-1.903183 1.818672,-4.026047 2.481979,-6.220063 z m -2.800624,6.980454 c -0.957325,1.75209 -2.066555,4.214752 -3.666584,6.140716 L 41.045883,79.513 c 1.270218,-1.528961 2.050854,-3.33876 3.233143,-5.502571 l 3.510201,1.917939 z m -3.666584,6.140716 c -1.116036,1.343376 -2.379021,2.547661 -3.506161,3.64975 L 37.820011,82.85881 c 1.187821,-1.161422 2.273251,-2.199134 3.225872,-3.34581 l 3.07676,2.556084 z m -3.506161,3.64975 c -0.759728,0.742851 -1.740513,1.559967 -2.862934,2.186806 -1.111824,0.620918 -2.493119,1.127365 -4.001633,1.051941 l 0.199753,-3.995011 c 0.497085,0.02486 1.120701,-0.141083 1.851543,-0.549232 0.720249,-0.402237 1.419892,-0.970879 2.0168,-1.554528 z m -6.864567,3.238747 c -0.557903,-0.0279 -1.203007,-0.187371 -1.769136,-0.445099 -0.474637,-0.21608 -1.419936,-0.736702 -1.815266,-1.8041 l 3.750994,-1.389252 c -0.102929,-0.277908 -0.258194,-0.416748 -0.294545,-0.447403 -0.04157,-0.03506 -0.04461,-0.02741 0.01616,2.59e-4 0.05497,0.02502 0.126877,0.05024 0.201832,0.06901 0.07915,0.01981 0.119938,0.02209 0.109711,0.02158 l -0.199753,3.995011 z m -3.584402,-2.249199 c -0.477709,-1.289811 -0.04713,-2.463379 0.296036,-3.146561 0.336225,-0.669365 0.853151,-1.352821 1.031635,-1.613312 l 3.29973,2.260933 c -0.07794,0.113754 -0.162166,0.232315 -0.234653,0.334763 -0.07633,0.107872 -0.146088,0.206894 -0.213455,0.306022 -0.13686,0.201371 -0.237961,0.365914 -0.308846,0.507027 -0.167435,0.333344 -0.0186,0.234169 -0.119453,-0.03812 l -3.750994,1.389252 z m 1.327671,-4.759873 c 0.645182,-0.941612 1.546278,-1.697914 2.196917,-2.214592 l 2.487529,3.132447 c -0.623184,0.494873 -1.105751,0.935928 -1.384716,1.343078 z m 2.196917,-2.214592 c 0.740806,-0.588287 1.808437,-1.485939 2.931911,-2.085129 l 1.882351,3.529412 c -0.717915,0.382889 -1.429413,0.975586 -2.326733,1.688164 z m 2.931911,-2.085129 c 1.139378,-0.607666 2.216129,-1.301666 3.41103,-2.050231 1.166759,-0.730942 2.426967,-1.500885 3.801666,-2.146157 l 1.699627,3.620949 c -1.13731,0.533844 -2.220467,1.189972 -3.377724,1.914963 -1.129112,0.707351 -2.357025,1.499099 -3.652248,2.189888 L 36.624012,77.648788 Z M 43.836708,73.4524 c 0.666523,-0.312858 1.342129,-0.567703 1.937359,-0.79203 0.618786,-0.233215 1.153767,-0.434616 1.66296,-0.669281 l 1.674232,3.632759 c -0.662761,0.305443 -1.33686,0.557281 -1.926528,0.779518 -0.613224,0.23111 -1.145455,0.433914 -1.648396,0.669983 z m 3.600319,-1.461311 c 1.119244,-0.515831 2.395302,-1.127037 3.734737,-1.581085 l 1.284161,3.788269 c -1.091499,0.369995 -2.139,0.869919 -3.344666,1.425575 z m 3.734737,-1.581085 c 0.695355,-0.23571 1.386311,-0.421135 2.02295,-0.587143 0.655925,-0.171036 1.239368,-0.317932 1.819927,-0.493347 l 1.156971,3.829017 c -0.674587,0.203835 -1.358727,0.376129 -1.967621,0.534905 -0.628185,0.163803 -1.199299,0.318809 -1.748066,0.504837 z m 3.842877,-1.08049 C 56.168549,68.98085 57.53273,68.589371 58.9701,68.472038 l 0.325451,3.98674 c -0.970394,0.07922 -1.971767,0.351616 -3.123939,0.699753 z M 58.9701,68.472038 c 2.128376,-0.173744 4.345021,-0.190551 6.698784,0.870949 l -1.644432,3.646347 C 62.612473,72.352562 61.226254,72.30117 59.295551,72.458778 Z m 6.698784,0.870949 c 2.461197,1.109955 3.640755,3.480522 4.001496,5.644997 l -3.945572,0.657592 C 65.49778,74.283401 64.857635,73.365089 64.024452,72.989334 Z m 4.001496,5.644997 c 0.386337,2.318016 -0.06931,4.632705 -0.806679,6.684745 -0.740662,2.061226 -1.813622,3.989029 -2.812164,5.586693 l -3.391995,-2.119995 c 0.928288,-1.485252 1.836216,-3.139572 2.439808,-4.819343 0.606895,-1.68895 0.858856,-3.274125 0.625458,-4.674508 z m -3.618843,12.271438 c -1.162629,1.860199 -2.691811,4.010857 -4.639153,5.568726 l -2.498779,-3.123474 c 1.405174,-1.124138 2.645508,-2.804558 3.745937,-4.565247 z m -4.639153,5.568726 c -0.232826,0.186264 -0.434357,0.377998 -0.753143,0.667702 -0.290924,0.264389 -0.661274,0.592071 -1.103401,0.892387 l -2.247532,-3.308868 c 0.196613,-0.133545 0.3945,-0.301781 0.660743,-0.543732 0.238373,-0.216629 0.582936,-0.541664 0.944554,-0.830963 z m -1.856544,1.560089 c -0.286152,0.194366 -0.588746,0.363945 -0.777558,0.472847 -0.219536,0.126617 -0.344353,0.203629 -0.439907,0.275291 l -2.399998,-3.199997 c 0.307576,-0.230682 0.619812,-0.41246 0.841442,-0.540283 0.252354,-0.145546 0.395043,-0.226082 0.528489,-0.316726 z" /></g><g
       transform="rotate(34.999981,-127.12746,420.8907)"
       id="g16"><path
         id="path18"
         style="fill:#da64e5;fill-opacity:1;fill-rule:nonzero;stroke:none"
         d="m 1.414214,52.150612 c -0.781049,0.781052 -2.047379,0.781052 -2.828428,0 -0.781048,-0.781044 -0.781048,-2.047379 0,-2.828423 z m 3.187313,-2.229447 -0.045443,1.999489 z m 4.49283,1.050744 0.757266,-1.851098 z m 3.134111,2.083366 1.644384,-1.13842 v 0 z m -0.08152,8.107025 0.433861,1.95237 z m -0.579719,-0.896751 1.923048,0.549438 v 0 z m 1.15944,-1.123215 -1.007743,-1.727554 v 0 z m 6.766419,-1.89315 -0.159491,-1.99363 z m 6.666779,2.862381 1.266475,-1.547921 v 0 z m 0.126813,16.223091 -1.907165,-0.602265 z m -1.503648,2.771789 -1.373247,-1.454025 v 0 z m -1.793509,0.289856 -0.894426,1.788857 z m -0.652185,-2.210174 -1.998726,-0.07139 z m 0.815233,-1.648583 1.687323,1.073754 v 0 z m 1.141321,-2.137718 1.779135,0.913605 z m 3.09788,-3.840645 1.623069,1.16861 z m 9.538206,-7.155914 0.668819,1.884849 z m 12.30999,-0.262688 -1.176342,1.61747 v 0 z m 3.750064,22.835526 -1.932018,-0.517014 z m -5.670387,10.271911 1.599999,1.200005 z m -6.105179,3.713837 -0.549442,-1.92305 z M 36.97527,97.403854 35.0779,98.036308 v 0 z m 2.16489,-7.373314 1.61747,1.176339 v 0 z m 4.891388,-5.471107 1.390045,1.437973 z m 2.962005,-3.097878 -1.275627,-1.540382 z m 3.641365,-2.19207 0.910954,1.780503 v 0 z m 18.333645,-4.157676 0.48507,-1.940285 z m 3.550782,1.222847 1.199996,-1.599999 v 0 z m 2.391349,2.943893 -1.670837,1.099228 z m 1.050736,7.898682 1.987068,0.227096 z m -2.346047,7.998321 1.914421,0.578781 z m -3.994636,9.982058 -1.755097,-0.95897 z m -5.217476,8.8045 -1.538384,-1.27804 z m -5.090672,5.28994 -1.398235,-1.43001 z m -8.116077,4.03993 -0.09988,1.99749 z m -2.735554,-1.43119 1.8755,-0.69463 z m 1.666695,-4.43848 -1.649868,-1.13046 z m 2.708381,-2.69027 1.243763,1.56622 z m 3.976513,-2.8533 -0.941177,-1.76471 v 0 z m 10.770111,-6.27728 -0.849815,-1.81047 z m 5.42582,-2.20113 0.837112,1.81638 z m 5.353348,-2.27359 0.642074,1.89413 z m 5.715675,-1.603287 -0.578484,-1.914513 v 0 z m 5.353348,-1.177552 0.162727,1.993359 z m 8.641456,1.0598 0.82222,-1.823174 z m 4.311665,6.277279 -1.97279,0.3288 z m -5.054432,16.45861 1.695999,1.06 v 0 z m -6.340691,7.66317 1.24939,1.56174 v 0 z m -2.617797,2.21924 1.123764,1.65444 v 0 z m -0.756554,2.8138 c -0.883652,0.66273 -2.137253,0.48364 -2.799995,-0.40001 -0.662743,-0.88365 -0.483658,-2.13725 0.399993,-2.8 z M -1.414214,49.322189 c 1.04715,-1.047149 2.457261,-1.312507 3.43161,-1.397827 0.993324,-0.08698 2.085675,-0.01504 2.629574,-0.0027 l -0.090886,3.99897 C 3.741643,51.902145 3.067194,51.84774 2.366321,51.909111 1.646473,51.972145 1.43499,52.129837 1.414214,52.150612 Z M 4.64697,47.921684 c 1.778566,0.04042 3.740856,0.600304 5.204653,1.199127 L 8.33709,52.822998 C 7.132333,52.330147 5.673369,51.946045 4.556084,51.920654 Z m 5.204653,1.199127 c 0.569175,0.232842 1.29427,0.556382 1.991754,0.980683 0.677293,0.412018 1.464735,0.999626 2.029475,1.815361 l -3.288768,2.27684 C 10.474717,54.035721 10.222194,53.797272 9.764503,53.518845 9.327003,53.252701 8.822095,53.021408 8.33709,52.822998 Z m 4.021229,2.796044 c 0.784757,1.133537 1.730396,3.262062 2.024142,5.29409 0.146762,1.015251 0.166917,2.240738 -0.282214,3.362557 -0.500825,1.250946 -1.526271,2.206123 -3.033975,2.541168 l -0.867722,-3.904747 c 0.180611,-0.04014 0.164055,-0.06269 0.188251,-0.123131 0.07589,-0.18956 0.137202,-0.609085 0.03681,-1.303566 -0.200566,-1.387436 -0.902478,-2.937241 -1.35406,-3.589531 z M 12.580805,63.11467 C 12.206008,63.19796 11.620734,63.269852 11.001992,63.04028 10.263288,62.766182 9.802986,62.188515 9.6048,61.588272 9.439348,61.087166 9.471699,60.631874 9.501908,60.387863 9.535517,60.116409 9.598927,59.874474 9.644177,59.716103 l 3.846096,1.098884 c -0.02342,0.08199 -0.02243,0.09467 -0.01867,0.06435 3.55e-4,-0.0029 0.03541,-0.230514 -0.06848,-0.545181 -0.136628,-0.413803 -0.476516,-0.846245 -1.009659,-1.04406 -0.216729,-0.08041 -0.398079,-0.09516 -0.505391,-0.0953 -0.106571,-1.37e-4 -0.169865,0.01399 -0.174983,0.01512 l 0.867722,3.904747 z M 9.644177,59.716103 c 0.227983,-0.797944 0.758572,-1.330834 1.089349,-1.61599 0.361593,-0.311722 0.744748,-0.54496 0.985396,-0.685333 l 2.015484,3.455116 c -0.08643,0.05042 -0.164517,0.0982 -0.234965,0.145439 -0.07146,0.04793 -0.121686,0.08643 -0.154142,0.114403 -0.03461,0.02984 -0.02769,0.02946 -0.0014,-0.0054 0.02601,-0.03448 0.09736,-0.137726 0.146413,-0.309395 z m 2.074745,-2.301323 c 2.398714,-1.399254 5.116695,-1.959389 7.614671,-2.159226 l 0.318982,3.987259 c -2.179842,0.174393 -4.235565,0.645561 -5.918169,1.627083 z m 7.614671,-2.159226 c 3.610535,-0.288841 6.037556,1.626572 8.092745,3.30809 l -2.532951,3.095833 c -2.099039,-1.717399 -3.388088,-2.56488 -5.240814,-2.416664 z m 8.092745,3.30809 c 0.908747,0.743523 1.626478,1.764496 2.116987,2.797387 0.490172,1.032173 0.82672,2.230613 0.82672,3.397346 h -4 c 0,-0.438484 -0.139553,-1.04882 -0.43998,-1.681435 -0.300085,-0.631904 -0.687446,-1.131729 -1.036678,-1.417465 z m 2.943707,6.194733 c 0,2.503037 0.136062,5.263641 -0.585087,8.148239 l -3.88057,-0.970138 c 0.57046,-2.28183 0.465657,-4.41127 0.465657,-7.178101 z m -0.585087,8.148239 c -0.221794,0.887184 -0.579554,1.683899 -0.873346,2.323532 -0.316912,0.689957 -0.554551,1.189911 -0.71777,1.706772 l -3.814331,-1.204529 c 0.256616,-0.812614 0.626039,-1.581474 0.8972,-2.171829 0.294281,-0.640686 0.505603,-1.135788 0.627677,-1.624084 z m -1.591116,4.030304 c -0.328135,1.039093 -0.866768,2.517792 -2.037567,3.623551 L 23.409781,77.65242 c 0.369356,-0.348839 0.664182,-0.952461 0.96973,-1.920029 z m -2.037567,3.623551 c -0.349367,0.329956 -0.745484,0.514175 -1.00516,0.615326 -0.291837,0.113677 -0.597734,0.193206 -0.888572,0.243072 -0.289906,0.04971 -0.61422,0.07843 -0.943842,0.06422 -0.297844,-0.01283 -0.760407,-0.06633 -1.223608,-0.297935 l 1.788854,-3.577706 c -0.138223,-0.06911 -0.247942,-0.09654 -0.300136,-0.107399 -0.05596,-0.01164 -0.08901,-0.01308 -0.09295,-0.01325 -0.0042,-1.83e-4 0.03172,5.65e-4 0.09569,-0.0104 0.02832,-0.0049 0.05471,-0.01077 0.07696,-0.01678 0.01084,-0.0029 0.01956,-0.0056 0.02604,-0.0077 0.0065,-0.0021 0.0097,-0.0034 0.0097,-0.0033 -9.2e-5,3.1e-5 -0.0013,4.88e-4 -0.0035,0.0014 -0.0022,9.47e-4 -0.0057,0.0025 -0.01037,0.0047 -0.009,0.0042 -0.02476,0.01196 -0.04609,0.02412 -0.03577,0.02038 -0.12386,0.07384 -0.229511,0.173614 l 2.746494,2.908051 z m -4.061182,0.624687 c -1.184916,-0.592461 -1.614731,-1.641457 -1.738096,-2.459549 -0.09739,-0.645813 -0.02454,-1.438515 -0.01839,-1.610871 l 3.997452,0.142769 c -0.0043,0.121384 -0.01129,0.244591 -0.01655,0.341042 -0.0057,0.104256 -0.01,0.187843 -0.01242,0.266823 -0.005,0.164299 0.0013,0.237823 0.0052,0.263794 0.0031,0.02084 -0.0067,-0.07175 -0.08897,-0.203789 -0.04224,-0.06783 -0.09694,-0.135094 -0.162899,-0.194924 -0.06569,-0.05958 -0.128391,-0.09897 -0.176464,-0.123001 l -1.788854,3.577706 z m -1.756485,-4.07042 c 0.01609,-0.450492 0.147999,-0.835472 0.240827,-1.068931 0.103011,-0.259064 0.227288,-0.499359 0.336476,-0.694351 0.208307,-0.37201 0.468982,-0.761399 0.549331,-0.887665 l 3.374648,2.147507 c -0.160315,0.251922 -0.298922,0.453422 -0.433896,0.694465 -0.06245,0.111534 -0.09582,0.183296 -0.109623,0.21801 -0.0061,0.01541 -6.77e-4,0.0044 0.0079,-0.0291 0.0078,-0.03032 0.02734,-0.113983 0.03175,-0.237168 l -3.997452,-0.142769 z m 1.126634,-2.650947 c 0.360157,-0.565964 0.631709,-1.163956 1.049511,-1.977577 l 3.55827,1.827217 c -0.311674,0.606949 -0.740753,1.524124 -1.233133,2.297867 z m 1.049511,-1.977577 c 0.516451,-1.005715 1.205883,-1.794655 1.783955,-2.421723 0.627575,-0.680763 1.078403,-1.130043 1.469992,-1.673919 l 3.246137,2.337219 c -0.576706,0.800979 -1.288837,1.520378 -1.775139,2.047897 -0.535804,0.581215 -0.911167,1.040177 -1.166675,1.537743 z M 25.7687,68.390572 c 2.632423,-3.656144 6.220508,-6.356316 10.492454,-7.872162 l 1.337639,3.769706 c -3.503971,1.243348 -6.426588,3.443329 -8.583956,6.439675 z M 36.261154,60.51841 c 1.983872,-0.703957 4.32996,-1.562035 6.689747,-1.827072 2.446068,-0.27472 5.038956,0.06708 7.465408,1.831764 l -2.352687,3.234947 c -1.421441,-1.033775 -2.940732,-1.2855 -4.666279,-1.091705 -1.811825,0.203491 -3.696785,0.875992 -5.79855,1.621772 z m 14.155152,0.0047 c 2.917053,2.121498 5.715042,5.764992 5.715042,10.032471 h -4 c 0,-2.522812 -1.741272,-5.105553 -4.067726,-6.797524 z m 5.715042,10.032471 c 0,1.129707 0.0762,2.266906 0.158493,3.484298 0.08079,1.195069 0.167602,2.469589 0.167602,3.762207 h -4 c 0,-1.135284 -0.07623,-2.275482 -0.158493,-3.492431 -0.08075,-1.194619 -0.167602,-2.466736 -0.167602,-3.754074 z m 0.326095,7.246505 c 0,2.920067 -0.946003,5.488579 -1.535396,7.691048 L 51.05801,84.459091 c 0.713291,-2.665466 1.399433,-4.428512 1.399433,-6.657013 h 4 z m -1.535396,7.691048 c -1.138626,4.25486 -3.654076,7.823784 -6.002407,10.954895 l -3.200001,-2.400002 c 2.348213,-3.130951 4.419388,-6.154831 5.338371,-9.588928 z M 48.91964,96.448021 c -1.903462,2.537949 -4.685231,3.731029 -7.155735,4.436879 L 40.66502,97.038803 c 2.164215,-0.618347 3.931156,-1.492828 5.054619,-2.990784 z m -7.155735,4.436879 c -1.113129,0.31804 -2.438,0.30522 -3.608807,-0.0527 -1.159069,-0.35432 -2.538784,-1.180652 -3.077202,-2.795902 l 3.794735,-1.264915 c -0.02283,-0.06848 -0.01419,0.0931 0.451817,0.235557 0.454273,0.138871 0.991211,0.131676 1.340572,0.03185 l 1.098885,3.8461 z m -6.686009,-2.848592 c -0.604282,-1.812851 -0.283031,-3.664482 0.259194,-5.174385 0.549812,-1.531036 1.405746,-2.93544 2.185592,-4.007721 l 3.234944,2.352677 c -0.643765,0.885177 -1.276219,1.949615 -1.655919,3.006958 -0.38729,1.07846 -0.436676,1.934761 -0.229076,2.557556 z m 2.444786,-9.182106 c 1.559109,-2.143783 3.294079,-3.968826 5.118817,-5.732742 l 2.78009,2.875946 c -1.749043,1.690742 -3.299278,3.333038 -4.663963,5.209473 z m 5.118817,-5.732742 c 0.442646,-0.427895 0.830886,-0.885918 1.339126,-1.461319 0.480423,-0.543907 1.049484,-1.169373 1.737297,-1.738968 l 2.551254,3.080765 c -0.431709,0.357506 -0.8278,0.782318 -1.290576,1.306251 -0.43496,0.49244 -0.967961,1.119805 -1.557011,1.689217 z m 3.076423,-3.200287 c 1.245514,-1.031441 2.851238,-1.841354 4.006043,-2.432182 l 1.821903,3.560997 c -1.253388,0.641266 -2.434532,1.254532 -3.276692,1.95195 z m 4.006043,-2.432182 c 2.72607,-1.394737 5.908172,-2.893189 9.241043,-3.835747 3.332405,-0.942413 6.945728,-1.367447 10.488621,-0.48172 l -0.970139,3.88057 c -2.628151,-0.657036 -5.486076,-0.382355 -8.429955,0.450195 -2.943405,0.832413 -5.842605,2.184173 -8.507667,3.547699 z m 19.729664,-4.317467 c 0.414032,0.103508 1.252693,0.280365 1.916069,0.4729 0.703994,0.204331 1.590759,0.521073 2.349639,1.090233 l -2.400001,3.200005 c -0.175209,-0.131416 -0.505753,-0.286575 -1.064583,-0.448769 -0.599449,-0.17398 -1.069122,-0.258262 -1.771263,-0.433799 z m 4.265708,1.563133 c 1.35772,1.018288 2.261979,2.532349 2.862183,3.444657 l -3.341667,2.198463 c -0.766617,-1.165253 -1.254326,-1.943481 -1.920517,-2.443115 z m 2.862183,3.444657 c 1.977944,3.006477 1.663429,6.631012 1.366974,9.225013 l -3.974136,-0.454193 c 0.309547,-2.708496 0.352577,-4.919998 -0.734505,-6.572357 z m 1.366974,9.225013 c -0.177536,1.553391 -0.624313,3.070267 -1.087517,4.449616 -0.49366,1.470047 -0.949158,2.636787 -1.331177,3.90039 l -3.828849,-1.157554 c 0.395263,-1.307404 0.959648,-2.799828 1.368126,-4.016205 0.438926,-1.30706 0.776527,-2.503845 0.905281,-3.63044 z M 75.5298,95.754333 c -1.050651,3.47522 -2.346244,7.053797 -4.153953,10.362247 l -3.510201,-1.91794 c 1.620629,-2.96605 2.822457,-6.251664 3.835305,-9.601861 z m -4.153953,10.362247 c -1.50547,2.75528 -3.098854,6.3125 -5.434204,9.12356 l -3.07676,-2.55607 c 2.005539,-2.41408 3.270333,-5.31842 5.000763,-8.48543 z m -5.434204,9.12356 c -1.645996,1.9813 -3.510609,3.75995 -5.230812,5.44192 l -2.796471,-2.86002 c 1.78088,-1.74131 3.467945,-3.35339 4.950523,-5.13797 z m -5.230812,5.44192 c -1.107281,1.08268 -2.51857,2.25481 -4.113053,3.14528 -1.583896,0.88456 -3.478817,1.56325 -5.501136,1.46213 l 0.199749,-3.99501 c 1.010894,0.0506 2.148139,-0.28764 3.351047,-0.95942 1.192314,-0.66587 2.32246,-1.58953 3.266922,-2.513 z m -9.614189,4.60741 c -0.705464,-0.0353 -1.554921,-0.24213 -2.302178,-0.58232 -0.655769,-0.29854 -1.758984,-0.93669 -2.208996,-2.15173 l 3.750996,-1.38926 c -0.07559,-0.20408 -0.177704,-0.27663 -0.1451,-0.24914 0.02738,0.0231 0.109101,0.0807 0.260445,0.14963 0.145534,0.0663 0.313816,0.12394 0.480942,0.16579 0.171322,0.0429 0.30009,0.0589 0.36364,0.062 l -0.199749,3.99501 z m -4.511174,-2.73405 c -0.574253,-1.55048 -0.07149,-2.99931 0.402478,-3.9429 0.467033,-0.92979 1.173397,-1.85883 1.489845,-2.32067 l 3.299732,2.26092 c -0.498024,0.72685 -0.909985,1.24761 -1.215164,1.85518 -0.137776,0.27429 -0.200939,0.47273 -0.223175,0.60613 -0.01961,0.11762 -0.0028,0.15175 -0.0027,0.15208 l -3.750996,1.38926 z m 1.892323,-6.26357 c 0.881939,-1.28716 2.137512,-2.3502 3.114483,-3.12603 l 2.487529,3.13244 c -0.949516,0.75403 -1.78656,1.50184 -2.30228,2.25451 z m 3.114483,-3.12603 c 1.160473,-0.92155 2.683891,-2.20101 4.279102,-3.05179 l 1.882355,3.52941 c -1.189652,0.63448 -2.356941,1.60899 -3.673928,2.65482 z m 4.279102,-3.05179 c 1.763088,-0.94031 3.430267,-2.01495 5.220547,-3.1365 1.762138,-1.10392 3.622684,-2.23921 5.640926,-3.18654 l 1.699631,3.62094 c -1.780853,0.83591 -3.464348,1.85739 -5.216988,2.95536 -1.724495,1.08034 -3.542827,2.25272 -5.461761,3.27615 z m 10.861473,-6.32304 c 0.966126,-0.4535 1.951157,-0.82558 2.85598,-1.16659 0.928375,-0.34989 1.773109,-0.66741 2.582542,-1.04045 l 1.674225,3.63276 c -0.962997,0.44382 -1.946846,0.81177 -2.8461,1.15068 -0.922813,0.3478 -1.76448,0.66784 -2.567016,1.04454 z m 5.438522,-2.20704 c 1.714852,-0.79032 3.586174,-1.686184 5.548378,-2.351345 l 1.284157,3.788265 c -1.714264,0.58111 -3.357033,1.36569 -5.15831,2.19584 z m 5.548378,-2.351345 c 1.014084,-0.34375 2.028367,-0.616394 2.989029,-0.86689 0.979958,-0.255531 1.888138,-0.484192 2.790245,-0.756775 l 1.156975,3.82903 c -0.996139,0.30098 -2.005012,0.55506 -2.937942,0.79832 -0.952217,0.2483 -1.846649,0.49052 -2.71415,0.78458 z m 5.779274,-1.623665 c 1.744698,-0.527168 3.714905,-1.088722 5.769112,-1.256416 l 0.325447,3.986736 c -1.587234,0.12958 -3.194626,0.57206 -4.937584,1.09871 z m 5.769112,-1.256416 c 3.168251,-0.258629 6.3079,-0.266571 9.626396,1.230003 l -1.644432,3.646343 c -2.376709,-1.07184 -4.685936,-1.1321 -7.656517,-0.88961 z m 9.626396,1.230003 c 3.305169,1.490563 4.950909,4.703693 5.462239,7.771653 l -3.94558,0.6576 c -0.37761,-2.26566 -1.483936,-4.02653 -3.161091,-4.78291 z m 5.462239,7.771653 c 0.5451,3.27062 -0.0918,6.5844 -1.17358,9.59484 -1.08504,3.01961 -2.66548,5.86511 -4.157647,8.25257 l -3.391998,-2.12 c 1.421913,-2.27506 2.837318,-4.84706 3.785294,-7.48522 0.951271,-2.64733 1.384511,-5.23161 0.992351,-7.58459 z m -5.331227,17.84741 c -1.742393,2.78782 -3.981087,5.91995 -6.7873,8.16491 l -2.498779,-3.12347 c 2.264046,-1.81124 4.21389,-4.47312 5.894081,-7.16144 z m -6.7873,8.16491 c -0.385116,0.30809 -0.726547,0.63222 -1.188072,1.05164 -0.433663,0.3941 -0.949585,0.84883 -1.555351,1.2603 l -2.247528,-3.30887 c 0.360252,-0.24469 0.703712,-0.53998 1.112693,-0.91165 0.381111,-0.34635 0.86557,-0.80378 1.379479,-1.21489 z m -2.743423,2.31194 c -0.393647,0.26738 -0.810311,0.50103 -1.112145,0.67512 -0.332558,0.1918 -0.569343,0.33511 -0.768173,0.48424 L 85.2145,131.63779 c 0.410859,-0.30814 0.835061,-0.5562 1.169709,-0.74923 0.365379,-0.21072 0.622139,-0.35533 0.863083,-0.51899 z" /></g><g
       transform="translate(190.82275,182.5227)"
       id="g20"><path
         id="path22"
         style="fill:#e7c9fd;fill-opacity:1;fill-rule:nonzero;stroke:none"
         d="M -0.588173,8.953909 C -1.643897,8.629068 -2.236397,7.509901 -1.911557,6.454178 -1.586718,5.398453 -0.467551,4.805954 0.588173,5.130793 Z m 64.338566,8.412802 c 0.32484,-1.055725 1.84753,-1.404389 2.599392,-0.595208 l 12.089432,13.011046 c 0.751869,0.809179 0.292472,2.302198 -0.784233,2.548742 l -17.312607,3.964234 c -1.076706,0.246543 -2.14,-0.897812 -1.815163,-1.953537 z M 8.819391,7.663485 c 1.055724,0.324838 1.648223,1.444006 1.323385,2.499729 -0.32484,1.055725 -1.444007,1.648224 -2.499732,1.323385 z m 9.112675,6.988977 c -1.055723,-0.324839 -1.648222,-1.444008 -1.323383,-2.499731 0.324838,-1.055723 1.444008,-1.648224 2.499731,-1.323383 z m 17.638781,1.242265 c 1.055725,0.324839 1.648223,1.444007 1.323383,2.499732 -0.324837,1.055723 -1.444004,1.648222 -2.499729,1.323383 z m 9.112678,6.988978 c -1.055725,-0.324838 -1.648224,-1.444006 -1.323383,-2.499729 0.324836,-1.055725 1.444008,-1.648224 2.499729,-1.323385 z m 17.638779,1.242264 c 1.055721,0.32484 1.648224,1.444008 1.323383,2.499733 -0.32484,1.055723 -1.444008,1.648222 -2.499729,1.323383 z m 9.112678,6.988981 c -1.055725,-0.32484 -1.648224,-1.444008 -1.323379,-2.499731 0.324837,-1.055725 1.444,-1.648224 2.499725,-1.323385 z M 0.588173,5.130793 8.819391,7.663485 7.643044,11.486599 -0.588173,8.953909 Z m 18.520241,5.698555 16.462433,5.065379 -1.176346,3.823115 -16.462435,-5.06538 z m 26.751457,8.231243 16.462433,5.065378 -1.176346,3.823116 -16.462433,-5.06538 z" /></g><g
       transform="translate(190.82275,187.68335)"
       id="g24"><path
         id="path26"
         style="fill:#fcc9fd;fill-opacity:1;fill-rule:nonzero;stroke:none"
         d="M -1.35145,3.356529 C -2.165688,2.610146 -2.220693,1.345009 -1.474308,0.530777 -0.727923,-0.283463 0.537212,-0.33847 1.35145,0.407913 Z m 66.690233,46.372833 c 0.746384,-0.814235 2.271393,-0.475856 2.603348,0.577652 l 5.337647,16.939637 c 0.331954,1.053505 -0.723595,2.205009 -1.801934,1.965744 L 54.138866,65.365105 C 53.060524,65.125839 52.591064,63.635956 53.337448,62.821716 Z M 7.050003,5.631592 c 0.814238,0.746387 0.869243,2.01152 0.122858,2.82576 -0.746385,0.814235 -2.01152,0.869243 -2.825758,0.122856 z m 4.420291,9.478214 c -0.814238,-0.746384 -0.869243,-2.01152 -0.122858,-2.825756 0.746386,-0.81424 2.01152,-0.869244 2.825758,-0.12286 z m 14.100007,7.498741 c 0.814238,0.746388 0.869244,2.011521 0.122858,2.82576 -0.746385,0.814236 -2.01152,0.86924 -2.825758,0.122856 z m 4.420292,9.478214 c -0.814238,-0.746383 -0.869244,-2.01152 -0.122858,-2.825756 0.746385,-0.814239 2.01152,-0.869243 2.825758,-0.12286 z m 14.100006,7.498742 c 0.814236,0.746383 0.869244,2.01152 0.122856,2.825756 -0.746383,0.814235 -2.01152,0.869243 -2.825756,0.12286 z m 4.420292,9.47821 c -0.814236,-0.746384 -0.869244,-2.01152 -0.122856,-2.825756 0.746383,-0.814236 2.01152,-0.869244 2.825756,-0.12286 z m 14.100006,7.498741 c 0.814236,0.746388 0.869244,2.011521 0.122856,2.82576 -0.746383,0.814236 -2.01152,0.86924 -2.825756,0.122856 z m 4.4203,9.478218 c -0.81424,-0.746383 -0.869248,-2.01152 -0.122864,-2.825756 0.746391,-0.814239 2.01152,-0.869243 2.82576,-0.12286 z M 1.35145,0.407913 7.050003,5.631592 4.347103,8.580208 -1.35145,3.356529 Z m 12.821744,11.753277 11.397107,10.447357 -2.7029,2.948616 -11.397107,-10.447357 z m 18.520299,16.976955 11.397106,10.447358 -2.7029,2.948616 -11.397106,-10.447358 z m 18.520298,16.976952 11.397106,10.447357 -2.7029,2.948616 -11.397106,-10.447357 z" /></g><g
       transform="translate(190.823,187.32422)"
       id="g28"><path
         id="path30"
         style="fill:#1e1e1e;fill-opacity:1;fill-rule:nonzero;stroke:none"
         d="m -3.859057,3.293457 c -0.58126,-2.131302 0.675295,-4.330261 2.806593,-4.91153 2.131298,-0.581253 4.330261,0.675293 4.911521,2.806595 z m 47.509631,91.499252 c 2.131302,-0.58126 4.35025,1.618027 3.787986,3.75441 L 38.397774,132.8987 c -0.562264,2.13638 -3.576378,2.95842 -5.145413,1.40329 L 8.023419,109.29665 c -1.569034,-1.55513 -0.773874,-4.57644 1.357424,-5.1577 z M 3.859057,1.188522 31.427231,102.27241 23.709116,104.37735 -3.859057,3.293457 Z" /></g><g
       transform="translate(190.823,147.95532)"
       id="g32"><path
         id="path34"
         style="fill:#1e1e1e;fill-opacity:1;fill-rule:nonzero;stroke:none"
         d="M 1.03063,45.474808 C -1.10392,46.04401 -3.295744,44.775043 -3.864945,42.640495 -4.434146,40.505943 -3.16518,38.314117 -1.03063,37.744919 Z M 49.375618,10.062016 C 48.806416,7.927464 51.018211,5.720982 53.151386,6.295315 l 34.299916,9.23485 c 2.133171,0.574333 2.938148,3.593042 1.374176,5.153259 L 63.677902,45.770599 c -1.563972,1.560219 -4.580738,0.74799 -5.14994,-1.386562 z M -1.03063,37.744919 56.786106,22.327452 58.847366,30.057343 1.03063,45.474808 Z" /></g><g
       transform="translate(209.50952,269.66065)"
       id="g36"><path
         id="path38"
         style="fill:#da64e5;fill-opacity:1;fill-rule:nonzero;stroke:none"
         d="m -1.414214,5.60938 c -0.781048,-0.781049 -0.781048,-2.047379 0,-2.828427 0.781049,-0.781049 2.047379,-0.781049 2.828428,0 z M 4.948858,5.083423 3.977572,6.831738 Z M 9.897717,3.97168 c 1.104569,0 2,0.89543 2,2 0,1.104569 -0.895431,2 -2,2 z M 1.414214,2.780953 c 0.00301,0.00301 0.0101,0.023239 0.122388,0.046068 C 1.693488,2.858918 1.926915,2.868665 2.351029,2.848427 2.690712,2.832218 3.303898,2.783451 3.84235,2.803314 4.420187,2.824631 5.178722,2.923208 5.920144,3.335109 L 3.977572,6.831738 C 4.014193,6.852082 3.968563,6.810691 3.69489,6.800595 3.381834,6.789047 3.096169,6.817422 2.54168,6.843881 1.665417,6.885694 -0.068838,6.954755 -1.414214,5.60938 Z m 4.50593,0.554156 C 5.815557,3.277004 5.751315,3.259625 5.773738,3.266747 c 0.011331,0.0036 0.048457,0.014319 0.117372,0.029308 0.138802,0.030189 0.328376,0.06096 0.549844,0.088328 0.454155,0.056124 0.889366,0.079721 1.04578,0.079721 v 4.000001 c -0.361112,0 -0.965589,-0.039384 -1.536366,-0.10992 C 5.659369,7.318224 5.340168,7.269744 5.040996,7.204675 4.795788,7.151342 4.365762,7.047398 3.977572,6.831738 Z m 1.56659,0.128995 c 0.731485,0 1.453316,0.245312 1.768909,0.342684 0.212744,0.065639 0.35413,0.10779 0.479457,0.136674 0.121728,0.028056 0.166547,0.028218 0.162617,0.028218 v 4 C 9.143116,7.97168 8.430212,7.738174 8.076353,7.628996 7.569393,7.47258 7.486154,7.464105 7.486734,7.464105 Z" /></g><g
       transform="translate(201.38818,238.87085)"
       id="g40"><path
         id="path42"
         style="fill:#da64e5;fill-opacity:1;fill-rule:nonzero;stroke:none"
         d="m 0,8.053223 c -1.10457,0 -2,-0.895431 -2,-2 0,-1.10457 0.89543,-2 2,-2 z M 7.35984,4.981675 6.547564,3.154052 Z M 8.534529,2.612609 c 0.919057,-0.612705 2.160796,-0.364357 2.7735,0.5547 0.612705,0.919058 0.364358,2.160796 -0.5547,2.773501 z M 0,4.053223 c -0.013497,0 0.002989,0.00265 0.076091,-0.016164 C 0.164556,4.014286 0.262192,3.981052 0.463165,3.910968 0.802699,3.792564 1.473332,3.545647 2.284088,3.545647 v 4.000001 c -0.044912,0 -0.115589,0.00687 -0.503815,0.142253 C 1.472811,7.795121 0.795814,8.053223 0,8.053223 Z M 2.284088,3.545647 c 0.274563,0 0.541687,-0.03759 0.968398,-0.103473 C 3.644436,3.381658 4.201219,3.29186 4.821965,3.29186 v 4 c -0.267217,0 -0.529207,0.037095 -0.959122,0.103473 C 3.467689,7.456344 2.909856,7.545648 2.284088,7.545648 Z M 4.821965,3.29186 c 1.071326,0 1.397671,0.00794 1.725599,-0.137808 L 8.172117,6.809298 C 6.880598,7.383307 5.508773,7.29186 4.821965,7.29186 Z M 6.547564,3.154052 C 7.159021,2.882293 7.846778,2.766559 8.131511,2.707463 8.549425,2.620725 8.579704,2.582492 8.534529,2.612609 l 2.2188,3.328201 C 10.077374,6.391448 9.329081,6.544153 8.944382,6.623997 8.426502,6.731482 8.287605,6.75797 8.172117,6.809298 Z" /></g><g
       transform="translate(195.55127,217.57544)"
       id="g44"><path
         id="path46"
         style="fill:#da64e5;fill-opacity:1;fill-rule:nonzero;stroke:none"
         d="m 2,6.791748 c 0,1.104569 -0.89543,2 -2,2 -1.10457,0 -2,-0.895431 -2,-2 z M 3.933708,5.254923 3.499847,3.302549 Z M 8.374991,2.000084 c 1.10457,0 2,0.895431 2,2 0,1.10457 -0.89543,2 -2,2 z M -2,6.791748 C -2,6.005119 -1.617502,5.437643 -1.317358,5.117176 -1.02242,4.802269 -0.686886,4.590242 -0.433129,4.45207 0.080003,4.172665 0.678863,3.973244 1.172395,3.831841 2.145536,3.553023 3.324569,3.3415 3.499847,3.302549 L 4.367569,7.207297 C 3.893255,7.3127 3.105434,7.438941 2.274119,7.677124 1.865423,7.794221 1.602654,7.898108 1.479715,7.965049 1.415436,8.00005 1.489324,7.971956 1.602124,7.851518 1.72013,7.725522 2,7.363052 2,6.791748 Z M 3.499847,3.302549 C 4.084354,3.172659 4.602483,2.944788 5.461564,2.62572 6.220622,2.343801 7.236505,2.000084 8.374991,2.000084 v 4 c -0.375087,0 -0.818325,0.114477 -1.520754,0.375364 C 6.251829,6.599186 5.306104,6.998734 4.367569,7.207297 Z" /></g><g
       transform="translate(192.50561,202.09473)"
       id="g48"><path
         id="path50"
         style="fill:#da64e5;fill-opacity:1;fill-rule:nonzero;stroke:none"
         d="m 6.598478,3.015137 c 1.104569,0 1.999999,0.89543 1.999999,2 0,1.104569 -0.89543,2 -1.999999,2 z M 0,5.999986 c -1.10457,0 -2,-0.89543 -2,-2 0,-1.104569 0.89543,-2 2,-2 z m 6.598478,1.015151 c -0.744374,0 -1.468815,-0.07546 -2.070151,-0.13743 C 3.889924,6.811915 3.388701,6.761349 2.918557,6.761349 v -4 c 0.713595,0 1.426909,0.076328 2.019821,0.137431 0.629979,0.064922 1.153628,0.116357 1.6601,0.116357 z M 2.918557,6.761349 C 1.941981,6.761349 1.117683,6.398046 0.711893,6.23251 0.195784,6.02197 0.079848,5.999986 0,5.999986 v -4 c 0.983066,0 1.805683,0.358698 2.222762,0.52884 0.527398,0.215145 0.630922,0.232523 0.695795,0.232523 z" /></g><g
       transform="translate(229.30493,169.74219)"
       id="g52"><path
         id="path54"
         style="fill:#7876ff;fill-opacity:1;fill-rule:nonzero;stroke:none"
         d="M -0.248069,6.106042 C -1.344109,5.969037 -2.121561,4.969457 -1.984556,3.873416 -1.847551,2.777377 -0.84797,1.999926 0.248069,2.13693 Z m 4.759849,1.37108 -1.486588,1.33793 v 0 z m 4.340485,3.750417 c 0,1.104569 -0.89543,2 -2,2 -1.104569,0 -2,-0.895431 -2,-2 z M 0.248069,2.13693 C 1.67679,2.31552 2.933262,3.212834 3.779838,3.927304 4.693182,4.698121 5.493644,5.578388 5.998368,6.139193 L 3.025192,8.815052 C 2.52172,8.255639 1.882426,7.560104 1.199995,6.984167 0.450797,6.35188 -0.044523,6.131485 -0.248069,6.106042 Z m 5.750299,4.002263 c 0.380672,0.422968 1.038708,1.155595 1.602987,1.950704 0.282833,0.398532 0.574727,0.857578 0.802383,1.340486 0.215351,0.456805 0.448527,1.090104 0.448527,1.797156 h -4 c 0,0.139998 0.036724,0.127757 -0.06663,-0.09148 C 4.694586,10.942924 4.545521,10.69543 4.339342,10.404907 3.925595,9.821909 3.413387,9.24638 3.025192,8.815052 Z" /></g><g
       transform="translate(209.00195,176.05786)"
       id="g56"><path
         id="path58"
         style="fill:#7876ff;fill-opacity:1;fill-rule:nonzero;stroke:none"
         d="M -1.984556,4.652284 C -2.121561,3.556244 -1.344109,2.556664 -0.248069,2.419659 0.84797,2.282654 1.847551,3.060105 1.984556,4.156145 Z M 4.695071,6.575509 3.46719,8.154213 Z M 9.402483,9.60069 c 0.493978,0.987957 0.09353,2.189303 -0.894427,2.683282 -0.987958,0.493978 -2.189304,0.09353 -2.683282,-0.894428 z M 1.984556,4.156145 C 1.931892,3.734836 1.749134,3.45062 1.648489,3.318788 1.544914,3.18312 1.453026,3.109789 1.430235,3.09194 1.388172,3.058999 1.409504,3.08252 1.556571,3.155164 1.83759,3.293972 2.263682,3.461311 2.801953,3.65729 3.28579,3.83345 3.912791,4.050909 4.388925,4.231545 4.638452,4.326211 4.895893,4.42885 5.128361,4.535114 5.327603,4.626191 5.642827,4.778929 5.922952,4.996804 L 3.46719,8.154213 C 3.573286,8.236732 3.613868,8.240914 3.465404,8.17305 3.350166,8.120373 3.186837,8.053682 2.970074,7.971447 2.513631,7.798281 2.025983,7.631642 1.433474,7.415915 0.895399,7.220008 0.283449,6.987669 -0.214895,6.741514 -0.45751,6.621675 -0.761189,6.456393 -1.036047,6.241139 -1.207505,6.106863 -1.867994,5.584777 -1.984556,4.652284 Z M 5.922952,4.996804 C 7.692949,6.373468 8.61513,8.025986 9.402483,9.60069 L 5.824774,11.389544 C 5.094111,9.928219 4.498561,8.95639 3.46719,8.154213 Z" /></g><g
       transform="translate(199.10425,179.53979)"
       id="g60"><path
         id="path62"
         style="fill:#7876ff;fill-opacity:1;fill-rule:nonzero;stroke:none"
         d="M -1.328728,5.970092 C -2.154293,5.236256 -2.228655,3.972111 -1.494819,3.146545 -0.760983,2.32098 0.503162,2.246619 1.328728,2.980454 Z M 2.030301,5.434027 2.966076,3.666451 Z M 7.480694,8.91857 C 7.829989,9.966456 7.263669,11.099096 6.215783,11.448392 5.167896,11.797688 4.035256,11.231367 3.685961,10.183481 Z M 1.328728,2.980454 c -0.012685,-0.011275 0.03697,0.037823 0.357012,0.158823 0.073972,0.027966 0.150409,0.055669 0.243317,0.089354 0.08822,0.031987 0.1921,0.069662 0.297633,0.1098 0.209411,0.079649 0.470528,0.185683 0.739386,0.32802 L 1.094525,7.201602 C 0.916033,7.107106 0.774583,7.071127 0.271168,6.880798 -0.121981,6.732159 -0.761052,6.474693 -1.328728,5.970092 Z M 2.966076,3.666451 C 3.347803,3.868541 3.625782,4.136777 3.771691,4.284805 3.91801,4.433249 4.086286,4.626166 4.14743,4.693907 4.247936,4.805255 4.262296,4.812481 4.234509,4.790079 4.22395,4.781567 3.980065,4.575113 3.547308,4.521019 L 3.051169,8.490129 C 2.403326,8.409149 1.946387,8.083426 1.723958,7.904101 1.484301,7.710888 1.287974,7.495761 1.178125,7.37406 1.028913,7.208751 0.987167,7.157921 0.922944,7.092765 0.858311,7.027193 0.925229,7.111975 1.094525,7.201602 Z M 3.547308,4.521019 C 4.426876,4.630964 5.062188,5.141744 5.416186,5.4826 5.809209,5.861033 6.135902,6.305237 6.390152,6.700621 6.89444,7.484842 7.296595,8.366274 7.480694,8.91857 L 3.685961,10.183481 C 3.611024,9.95867 3.356191,9.378008 3.025724,8.864097 2.862595,8.610414 2.727467,8.446542 2.641749,8.364007 2.517007,8.243896 2.656659,8.440816 3.051169,8.490129 Z" /></g><g
       transform="translate(239.20264,160.22681)"
       id="g64"><path
         id="path66"
         style="fill:#7876ff;fill-opacity:1;fill-rule:nonzero;stroke:none"
         d="m 0,6.24654 c -1.10457,0 -2,-0.89543 -2,-2 0,-1.104568 0.89543,-2 2,-2 z m 9.587532,2.568178 1.67914,-1.086504 z m 4.173396,8.882565 -1.827623,0.812277 v 0 z m 0.648568,8.882566 -1.827622,-0.812277 z m -1.19844,3.933708 1.952373,0.433861 z m 0.36054,4.566163 c -0.349295,1.047889 -1.481935,1.614208 -2.529821,1.264911 C 9.993888,35.995338 9.427567,34.862698 9.776863,33.814812 Z M 0,2.24654 c 1.011264,0 2.045583,0.284473 2.885587,0.583376 0.870256,0.309666 1.69397,0.694872 2.32323,1.009502 L 3.419962,7.417128 C 2.858674,7.136482 2.197677,6.830824 1.544617,6.598442 0.861305,6.355297 0.333703,6.24654 0,6.24654 Z m 5.208817,1.592878 c 0.350812,0.175406 0.757861,0.347521 1.261326,0.559985 0.480013,0.202566 1.037786,0.437904 1.585105,0.708274 1.062473,0.524849 2.362865,1.309128 3.211424,2.620537 L 7.908392,9.90122 C 7.660345,9.517874 7.163793,9.128742 6.283659,8.693966 5.859674,8.484522 5.409729,8.293493 4.914942,8.084692 4.443608,7.885788 3.908776,7.661533 3.419962,7.417128 Z m 6.057855,3.888796 c 0.473086,0.731135 0.946518,1.372486 1.505416,2.182789 0.531139,0.77006 1.087437,1.62203 1.565153,2.577463 l -3.577709,1.788855 C 10.406998,13.57225 9.975016,12.900728 9.479365,12.182121 9.011473,11.503759 8.419603,10.691273 7.908392,9.90122 Z m 3.070569,4.760252 c 0.478666,0.957333 0.676397,1.964022 0.81777,2.688898 0.160165,0.821234 0.254689,1.30523 0.43354,1.707642 l -3.655246,1.624554 c -0.403051,-0.906863 -0.574063,-1.898594 -0.704324,-2.5665 -0.149055,-0.764263 -0.266644,-1.260128 -0.469449,-1.665739 z m 1.25131,4.39654 c 0.342527,0.770687 0.550205,1.748476 0.676078,2.575893 0.130923,0.8606 0.201264,1.751648 0.201264,2.437981 h -3.999999 c 0,-0.454508 -0.05018,-1.142349 -0.155766,-1.836388 -0.11063,-0.727216 -0.255435,-1.279808 -0.376823,-1.552932 z m 0.877342,5.013874 c 0,0.208603 0.02007,0.502758 0.05468,0.920784 0.03209,0.387508 0.07542,0.868874 0.101589,1.343372 0.02623,0.475655 0.03942,1.007481 0.0019,1.526139 -0.03603,0.497467 -0.126702,1.117502 -0.386902,1.702951 l -3.655246,-1.624554 c -0.0102,0.02295 0.03117,-0.0715 0.0526,-0.367319 0.01989,-0.274631 0.01593,-0.614902 -0.0062,-1.016979 -0.02224,-0.403229 -0.05855,-0.805225 -0.09401,-1.233536 -0.03294,-0.397791 -0.06832,-0.851909 -0.06832,-1.250858 h 3.999999 z m -0.228773,5.493246 c -0.409877,0.922224 -0.818786,2.40822 -1.073691,3.555292 l -3.904748,-0.867721 c 0.269125,-1.211064 0.746262,-3.014031 1.323193,-4.312125 z m -1.073691,3.555292 c -0.201673,0.90753 -0.551282,1.721527 -0.848433,2.381191 -0.322203,0.715279 -0.565974,1.218834 -0.7434,1.751111 L 9.776863,33.814812 c 0.260759,-0.78228 0.631407,-1.552601 0.891072,-2.12905 0.284718,-0.632063 0.48443,-1.127643 0.590746,-1.606065 z" /></g><g
       transform="translate(259.75952,156.30713)"
       id="g68"><path
         id="path70"
         style="fill:#7876ff;fill-opacity:1;fill-rule:nonzero;stroke:none"
         d="m 0,6.613377 c -1.10457,0 -2,-0.89543 -2,-2 0,-1.104569 0.89543,-2 2,-2 z M 2.918557,4.091702 3.352418,2.139328 Z M 4.695071,4.34549 4.26121,6.297863 Z M 5.978108,4.853065 6.52755,2.930017 Z m 6.260094,9.658028 -1.827623,0.812277 v 0 z m 0.958754,3.29924 1.99692,-0.110941 z m 0.507575,3.553026 1.99692,-0.11094 z m 2,3.299239 c 0,1.10457 -0.895431,2 -2,2 -1.10457,0 -2,-0.89543 -2,-2 z M 0,2.613377 c -0.263018,0 -0.468027,0.07595 -0.583313,0.13393 -0.082208,0.041344 -0.127538,0.081089 -0.025484,0.00545 C -0.55606,2.713676 -0.340217,2.547131 -0.083933,2.413033 0.209233,2.259636 0.625475,2.105801 1.142044,2.105801 v 4 c 0.295336,0 0.517189,-0.090388 0.628469,-0.148613 C 1.844911,5.918259 1.89137,5.878607 1.772887,5.966417 1.70372,6.017677 1.485333,6.184315 1.21389,6.320829 0.909368,6.47398 0.498948,6.613377 0,6.613377 Z M 1.142044,2.105801 c 0.242232,0 0.266095,-0.020899 0.68539,-0.061568 C 2.250812,2.003166 2.725992,2.000122 3.352418,2.139328 L 2.484697,6.044075 C 2.395406,6.024233 2.349433,6.020849 2.329771,6.019943 2.31006,6.019035 2.282067,6.018908 2.213606,6.025547 2.121292,6.034502 1.640068,6.105801 1.142044,6.105801 Z M 3.352418,2.139328 C 3.513453,2.175114 3.697147,2.196486 4.014815,2.229551 4.293176,2.258526 4.706742,2.299295 5.128932,2.393116 L 4.26121,6.297863 C 4.101665,6.262409 3.919092,6.241199 3.600688,6.208055 3.321592,6.179005 2.907897,6.138121 2.484697,6.044075 Z M 5.128932,2.393116 C 5.619226,2.502069 6.001668,2.684376 6.221358,2.789963 6.479537,2.914049 6.501373,2.922537 6.52755,2.930017 L 5.428666,6.776112 C 5.001562,6.654083 4.633054,6.464602 4.488623,6.395185 4.305702,6.30727 4.273266,6.300543 4.26121,6.297863 Z M 6.52755,2.930017 C 7.345141,3.163614 8.111577,3.748882 8.570835,4.124914 9.107943,4.564686 9.602726,5.042986 9.916099,5.356358 L 7.087671,8.184786 C 6.812394,7.909508 6.424693,7.537455 6.036777,7.219837 5.842929,7.061119 5.673047,6.935871 5.536015,6.848667 5.380042,6.749407 5.351223,6.753986 5.428666,6.776112 Z m 3.388549,2.426341 c 1.071954,1.071954 2.437883,2.62648 2.937053,4.623162 l -3.88057,0.970142 C 8.753694,10.07411 8.075833,9.172947 7.087671,8.184786 Z m 2.937053,4.623162 c 0.303191,1.212762 0.765096,2.712248 1.212673,3.719296 L 10.410579,15.32337 C 9.828898,14.014589 9.301179,12.26405 8.972582,10.949662 Z m 1.212673,3.719296 c 0.418137,0.940808 1.053024,2.650074 1.128051,4.000576 l -3.993841,0.22188 c -0.03242,-0.583606 -0.405482,-1.733961 -0.789456,-2.597902 z m 1.128051,4.000576 c 0.02587,0.465733 0.109573,0.925598 0.222669,1.525111 0.10606,0.562208 0.242798,1.269966 0.284906,2.027916 L 11.70761,21.474298 C 11.68243,21.021034 11.599648,20.569103 11.485876,19.966015 11.379142,19.400229 11.242697,18.68919 11.200035,17.921272 Z m 0.507575,3.553027 c 0.06554,1.179767 0.0031,2.522731 0.0031,3.410179 h -4 c 0,-1.203085 0.06145,-2.137631 0.0031,-3.1883 l 3.993841,-0.221879 z" /></g></g></svg>
